<svg width="800" height="800" viewBox="0 0 800 800" fill="none" xmlns="http://www.w3.org/2000/svg">
<path fill-rule="evenodd" clip-rule="evenodd" d="M380.197 410.621C382.937 389.151 401.399 373.051 423.277 373.051H606.72C618.894 373.051 630.509 378.106 638.734 386.984C646.959 395.862 651.038 407.747 649.978 419.743C645.031 475.69 631.23 524.824 606.356 564.967C559.81 640.198 488.539 678.571 398.343 678.571C323.727 678.571 259.652 653.203 209.674 601.628C159.801 550.164 135.857 484.832 135.857 409.249C135.857 367.713 144.034 327.272 160.151 288.203L160.203 288.077C176.298 249.413 199.253 216.197 229.329 189.261C279.828 143.618 342.31 121.428 413.778 121.428C503.182 121.428 577.991 158.278 635.464 228.716C649.301 245.675 648.106 270.195 632.683 285.758L588.455 330.386C579.631 339.29 567.331 343.962 554.75 343.188C542.17 342.414 530.55 336.271 522.909 326.354C493.311 287.937 457.546 270.456 412.591 270.456C375.024 270.456 347.444 282.733 325.865 306.413C303.494 331.131 290.974 363.706 290.974 407.78C290.974 447.374 302.386 476.018 322.492 497.551C342.212 518.671 367.546 529.838 402.499 529.838C422.908 529.838 441.986 521.759 452.326 506.727H415.932C403.468 506.727 391.605 501.428 383.362 492.181C375.119 482.933 371.291 470.627 372.852 458.395L380.197 410.621Z" fill="url(#paint0_linear)"/>
<defs>
<linearGradient id="paint0_linear" x1="393" y1="121.428" x2="393" y2="678.571" gradientUnits="userSpaceOnUse">
<stop stop-color="#00CCFF"/>
<stop offset="1" stop-color="#00A5CE"/>
</linearGradient>
</defs>
</svg>
